<!DOCTYPE svg PUBLIC "-//W3C//DTD SVG 1.1//EN" "http://www.w3.org/Graphics/SVG/1.1/DTD/svg11.dtd">
<!-- Uploaded to: SVG Repo, www.svgrepo.com, Transformed by: SVG Repo Mixer Tools -->
<svg fill="#000000" width="64px" height="64px" viewBox="0 0 24 24" id="delete-alt-2" data-name="Flat Line" xmlns="http://www.w3.org/2000/svg" class="icon flat-line">
<g id="SVGRepo_bgCarrier" stroke-width="0"/>
<g id="SVGRepo_tracerCarrier" stroke-linecap="round" stroke-linejoin="round"/>
<g id="SVGRepo_iconCarrier">
<path id="secondary" d="M17.07,20.07,18,7H6l.93,13.07a1,1,0,0,0,1,.93h8.14A1,1,0,0,0,17.07,20.07Z" style="fill: #fff; stroke-width: 2;"/>
<path id="primary" d="M16,7V4a1,1,0,0,0-1-1H9A1,1,0,0,0,8,4V7" style="fill: none; stroke: #000000; stroke-linecap: round; stroke-linejoin: round; stroke-width: 2;"/>
<path id="primary-2" data-name="primary" d="M12,11v6M4,7H20M17.07,20.07,18,7H6l.93,13.07a1,1,0,0,0,1,.93h8.14A1,1,0,0,0,17.07,20.07Z" style="fill: none; stroke: #000000; stroke-linecap: round; stroke-linejoin: round; stroke-width: 2;"/>
</g>
</svg>